<?xml version="1.0" encoding="utf-8"?>
<!-- Generator: Adobe Illustrator 24.2.3, SVG Export Plug-In . SVG Version: 6.00 Build 0)  -->
<svg version="1.1" id="레이어_1" xmlns="http://www.w3.org/2000/svg" xmlns:xlink="http://www.w3.org/1999/xlink" x="0px"
	 y="0px" viewBox="0 0 600 400" style="enable-background:new 0 0 600 400;" xml:space="preserve">
<style type="text/css">
	.st0{fill:#E3AD6F;}
	.st1{font-family:'AdobeMyungjoStd-Medium-KSCpc-EUC-H';}
	.st2{font-size:12px;}
	.st3{fill:none;stroke:#000000;stroke-width:0.9506;stroke-miterlimit:10;}
	.st4{fill:none;stroke:#000000;stroke-width:0.8678;stroke-miterlimit:10;}
</style>
<rect x="86.5" y="73" class="st0" width="45" height="261"/>
<rect x="142.43" y="226" class="st0" width="45" height="108"/>
<rect x="198.36" y="239.36" class="st0" width="45" height="94.64"/>
<rect x="254.29" y="255.98" class="st0" width="45" height="78.02"/>
<rect x="310.21" y="265.26" class="st0" width="45" height="68.74"/>
<rect x="366.14" y="277.33" class="st0" width="45" height="56.67"/>
<rect x="422.07" y="284.34" class="st0" width="45" height="49.66"/>
<rect x="478" y="293.06" class="st0" width="45" height="40.94"/>
<text transform="matrix(1 0 0 1 87.1816 352.0664)" class="st1 st2">Dummy</text>
<text transform="matrix(1 0 0 1 30.9297 334.0664)" class="st1 st2">0</text>
<text transform="matrix(1 0 0 1 23.4297 289.0664)" class="st1 st2">10</text>
<text transform="matrix(1 0 0 1 23.4297 244.0664)" class="st1 st2">20</text>
<text transform="matrix(1 0 0 1 23.4297 199.0664)" class="st1 st2">30</text>
<text transform="matrix(1 0 0 1 23.4297 154.0664)" class="st1 st2">40</text>
<text transform="matrix(1 0 0 1 23.4297 109.0664)" class="st1 st2">50</text>
<text transform="matrix(1 0 0 1 23.4297 64.0664)" class="st1 st2">60</text>
<text transform="matrix(1 0 0 1 143.0388 352.0664)" class="st1 st2">Dummy</text>
<text transform="matrix(1 0 0 1 198.8959 352.0664)" class="st1 st2">Dummy</text>
<text transform="matrix(1 0 0 1 254.7531 352.0664)" class="st1 st2">Dummy</text>
<text transform="matrix(1 0 0 1 310.6102 352.0664)" class="st1 st2">Dummy</text>
<text transform="matrix(1 0 0 1 366.4673 352.0664)" class="st1 st2">Dummy</text>
<text transform="matrix(1 0 0 1 422.3245 352.0664)" class="st1 st2">Dummy</text>
<text transform="matrix(1 0 0 1 478.1816 352.0664)" class="st1 st2">Dummy</text>
<polyline class="st3" points="552.5,334 47.5,334 47.5,34 "/>
<line class="st4" x1="42.5" y1="60" x2="47.5" y2="60"/>
<line class="st4" x1="42.5" y1="104.78" x2="47.5" y2="104.78"/>
<line class="st4" x1="42.5" y1="149.56" x2="47.5" y2="149.56"/>
<line class="st4" x1="42.5" y1="194.34" x2="47.5" y2="194.34"/>
<line class="st4" x1="42.5" y1="239.11" x2="47.5" y2="239.11"/>
<line class="st4" x1="42.5" y1="283.89" x2="47.5" y2="283.89"/>
</svg>
